<svg width="60" height="60" viewBox="0 0 60 60" fill="none" xmlns="http://www.w3.org/2000/svg">
<g clip-path="url(#clip0_487_318)">
<path d="M44.3249 0H5.5773C2.50207 0 0 2.50207 0 5.5773V17.0255H9.3934V30.3523H11.1546V5.5773C11.1546 4.10203 10.5778 2.75977 9.63926 1.76121H44.3249C46.4291 1.76121 48.141 3.4732 48.141 5.5773V6.04699H49.9022V5.5773C49.9022 2.50207 47.4001 0 44.3249 0ZM9.3934 15.2641H1.76121V5.5773C1.76121 3.4732 3.47309 1.76121 5.5773 1.76121C7.68152 1.76121 9.3934 3.4732 9.3934 5.5773V15.2641Z" fill="#F7B32C"/>
<path d="M48.1408 45.2642V58.2388H11.1545V56.5362H9.39331V60H49.9021V45.2642H48.1408Z" fill="#F7B32C"/>
<path d="M33.5813 7.74945V43.5616H60V7.74945H33.5813ZM58.2388 41.8004H35.3425V9.51078H58.2388V41.8004Z" fill="#F7B32C"/>
<path d="M44.1487 34.7554V40.0391H49.4324V34.7554H44.1487ZM47.6711 38.2779H45.9099V36.5167H47.6711V38.2779Z" fill="#F7B32C"/>
<path d="M37.1038 34.7554V40.0391H42.3875V34.7554H37.1038ZM40.6263 38.2779H38.8651V36.5167H40.6263V38.2779Z" fill="#F7B32C"/>
<path d="M51.1936 27.7104V40.0391H56.4774V27.7104H51.1936ZM54.7161 38.2779H52.9549V29.4716H54.7161V38.2779Z" fill="#F7B32C"/>
<path d="M44.1487 27.7104V32.9941H49.4324V27.7104H44.1487ZM47.6711 31.2329H45.9099V29.4717H47.6711V31.2329Z" fill="#F7B32C"/>
<path d="M37.1038 27.7104V32.9941H42.3875V27.7104H37.1038ZM40.6263 31.2329H38.8651V29.4717H40.6263V31.2329Z" fill="#F7B32C"/>
<path d="M51.1936 20.6653V25.949H56.4774V20.6653H51.1936ZM54.7161 24.1878H52.9549V22.4266H54.7161V24.1878Z" fill="#F7B32C"/>
<path d="M44.1487 20.6653V25.949H49.4324V20.6653H44.1487ZM47.6711 24.1878H45.9099V22.4266H47.6711V24.1878Z" fill="#F7B32C"/>
<path d="M37.1038 20.6653V25.949H42.3875V20.6653H37.1038ZM40.6263 24.1878H38.8651V22.4266H40.6263V24.1878Z" fill="#F7B32C"/>
<path d="M37.1038 11.272V18.9041H56.4776V11.272H37.1038ZM54.7163 17.1429H38.8651V13.0334H54.7163V17.1429Z" fill="#F7B32C"/>
<path d="M23.1667 32.0548H14.6771V29.5303H12.9159V32.0548H4.42629L0 41.666V41.859C0 44.6107 2.23852 46.8492 4.9902 46.8492C7.74188 46.8492 9.98039 44.6107 9.98039 41.859V41.666L6.36527 33.816H12.9158V49.4324H9.68684C7.90641 49.4324 6.45785 50.8808 6.45785 52.6614V54.7162H21.135V52.6614C21.135 50.8808 19.6864 49.4324 17.906 49.4324H14.677V33.816H21.2276L17.6125 41.666V41.859C17.6125 44.6107 19.851 46.8492 22.6027 46.8492C25.3543 46.8492 27.5929 44.6107 27.5929 41.859V41.666L23.1667 32.0548ZM4.9902 45.088C3.51492 45.088 2.26863 44.0933 1.88414 42.7397H8.09602C7.71187 44.0935 6.46547 45.088 4.9902 45.088ZM7.72477 40.9785H2.25574L4.99031 35.0407L7.72477 40.9785ZM17.906 51.1937C18.7153 51.1937 19.3737 51.8521 19.3737 52.6614V52.9549H8.21918V52.6614C8.21918 51.8521 8.87754 51.1937 9.68684 51.1937H17.906ZM22.6028 35.0407L25.3373 40.9785H19.8683L22.6028 35.0407ZM22.6028 45.088C21.1275 45.088 19.8812 44.0933 19.4967 42.7397H25.7087C25.3243 44.0935 24.0779 45.088 22.6028 45.088Z" fill="#F7B32C"/>
<path d="M16.2622 10.5675C15.7766 10.5675 15.3816 10.1724 15.3816 9.68682C15.3816 9.2012 15.7766 8.80616 16.2622 8.80616H18.4931V7.04495H17.1428V5.1076H15.3816V7.19647C14.3566 7.55999 13.6204 8.53874 13.6204 9.68694C13.6204 11.1437 14.8056 12.3288 16.2622 12.3288C16.7479 12.3288 17.1429 12.7239 17.1429 13.2095C17.1429 13.6951 16.7479 14.0901 16.2622 14.0901H14.0313V15.8513H15.3817V17.7887H17.1429V15.6998C18.1678 15.3363 18.9041 14.3576 18.9041 13.2094C18.9041 11.7526 17.7189 10.5675 16.2622 10.5675Z" fill="#F7B32C"/>
<path d="M31.7611 20.7827H13.7964V22.5439H31.7611V20.7827Z" fill="#F7B32C"/>
<path d="M21.1936 25.4795H13.7964V27.2407H21.1936V25.4795Z" fill="#F7B32C"/>
<path d="M24.7163 25.4795H22.9551V27.2407H24.7163V25.4795Z" fill="#F7B32C"/>
<path d="M28.2388 25.4795H26.4775V27.2407H28.2388V25.4795Z" fill="#F7B32C"/>
<path d="M5.4011 4.28571H3.63989V10.1566H5.4011V4.28571Z" fill="#F7B32C"/>
<path d="M5.4011 11.9178H3.63989V13.6791H5.4011V11.9178Z" fill="#F7B32C"/>
<path d="M45.2641 3.64001H40.9197V5.40123H45.2641V3.64001Z" fill="#F7B32C"/>
<path d="M29.178 3.64001H27.4167V5.40123H29.178V3.64001Z" fill="#F7B32C"/>
<path d="M39.1584 3.64001H30.9392V5.40123H39.1584V3.64001Z" fill="#F7B32C"/>
<path d="M25.6554 3.64001H20.9587V5.40123H25.6554V3.64001Z" fill="#F7B32C"/>
<path d="M39.1587 45.3229H33.2878V47.0841H39.1587V45.3229Z" fill="#F7B32C"/>
<path d="M31.5263 45.3229H29.7651V47.0841H31.5263V45.3229Z" fill="#F7B32C"/>
<path d="M31.82 9.80426H30.0588V14.5009H31.82V9.80426Z" fill="#F7B32C"/>
<path d="M31.82 16.2622H30.0588V18.0234H31.82V16.2622Z" fill="#F7B32C"/>
<path d="M46.2622 48.5518H44.501V50.313H46.2622V48.5518Z" fill="#F7B32C"/>
<path d="M44.501 52.0744V54.7163H41.8591V56.4775H46.2622V52.0744H44.501Z" fill="#F7B32C"/>
<path d="M40.0979 54.7162H38.3367V56.4775H40.0979V54.7162Z" fill="#F7B32C"/>
<path d="M33.6401 54.7162H27.7693V56.4775H33.6401V54.7162Z" fill="#F7B32C"/>
<path d="M26.0078 54.7162H24.2466V56.4775H26.0078V54.7162Z" fill="#F7B32C"/>
</g>
<defs>
<clipPath id="clip0_487_318">
<rect width="60" height="60" fill="white"/>
</clipPath>
</defs>
</svg>
