<svg width="60" height="60" viewBox="0 0 60 60" fill="none" xmlns="http://www.w3.org/2000/svg">
<g clip-path="url(#clip0_487_509)">
<path d="M56.1308 11.2989V7.60534H52.4375V3.73616H41.1941L37.5006 0.0428772H11.6348V4.71831L9.2925 1.99733C8.33613 0.886627 6.94793 0.218424 5.48332 0.163698C4.01883 0.109323 2.58457 0.67194 1.54817 1.70835C0.511994 2.74475 -0.0509752 4.17889 0.0036342 5.6435C0.0582436 7.10799 0.726564 8.49632 1.83727 9.45257L11.3762 17.6648L12.1605 16.8806L14.5235 19.2435L12.2435 21.5235C11.7454 22.0217 11.4709 22.6842 11.4709 23.3889C11.4709 23.7051 11.529 24.0119 11.6351 24.3002V48.7012H15.5043V52.3945H19.1975V56.2637H23.0667V59.957H60V11.2989H56.1308ZM38.0159 3.04522L45.566 10.5954H38.0159V3.04522ZM11.2866 15.2672L2.98477 8.11979C2.23277 7.47233 1.79824 6.56952 1.76121 5.57788C1.72418 4.58635 2.09016 3.65378 2.79199 2.95206C3.46137 2.28256 4.34063 1.9187 5.28106 1.9187C5.32641 1.9187 5.37199 1.91964 5.4177 1.92128C6.40934 1.95819 7.31203 2.39272 7.95961 3.14483L15.107 11.4467L11.2866 15.2672ZM13.404 15.6369L15.4767 13.5642L17.8397 15.9271L15.767 17.9998L13.404 15.6369ZM13.487 22.7671L22.6069 13.6472C22.7783 13.4757 23.0034 13.3901 23.2287 13.3901C23.4538 13.3901 23.679 13.4757 23.8505 13.6472L24.4308 14.2275L14.0674 24.5908L13.4871 24.0105C13.1441 23.6676 13.1441 23.1098 13.487 22.7671ZM25.6745 15.4712L27.8302 17.6267L17.4667 27.9902L15.3111 25.8346L25.6745 15.4712ZM13.3936 46.9424V26.4044L17.4664 30.4773L30.3171 17.6266L25.0939 12.4035C24.0653 11.375 22.3918 11.375 21.3632 12.4035L19.0832 14.6835L16.7202 12.3206L17.5045 11.5363L13.3935 6.76112V1.80163H36.257V12.354H46.8094V46.9424H13.3936ZM17.2628 50.6358V48.7011H48.5682V11.1104L42.9527 5.49491H50.6788V50.6358H17.2628ZM20.9562 54.505V52.3945H52.4375V9.36409H54.3722V54.505H20.9562ZM58.2412 58.1982H24.8254V56.2636H56.1308V13.0575H58.2412V58.1982Z" fill="#F7B32C"/>
<path d="M45.0505 14.289H43.2917V21.0894H45.0505V14.289Z" fill="#F7B32C"/>
<path d="M45.0505 22.8483H43.2917V24.607H45.0505V22.8483Z" fill="#F7B32C"/>
<path d="M22.8319 3.5603H16.0315V5.31905H22.8319V3.5603Z" fill="#F7B32C"/>
<path d="M26.3493 3.5603H24.5906V5.31905H26.3493V3.5603Z" fill="#F7B32C"/>
<path d="M33.7947 3.5603H28.1082V5.31905H33.7947V3.5603Z" fill="#F7B32C"/>
<path d="M16.9108 36.0388H15.1521V37.7975H16.9108V36.0388Z" fill="#F7B32C"/>
<path d="M16.9108 32.5799H15.1521V34.2801H16.9108V32.5799Z" fill="#F7B32C"/>
<path d="M16.9111 43.425V39.5557H15.1523V45.1836H24.1805V43.425H16.9111Z" fill="#F7B32C"/>
<path d="M34.5569 24.4893C33.1658 24.4893 31.8162 24.7631 30.5458 25.3032L31.2339 26.9218C32.2856 26.4748 33.4035 26.248 34.5569 26.248C39.2442 26.248 43.0575 30.0613 43.0575 34.7486C43.0575 39.4358 39.2442 43.2491 34.5569 43.2491C29.8696 43.2491 26.0564 39.4358 26.0564 34.7486C26.0564 34.0873 26.1323 33.4291 26.2823 32.7925L24.5702 32.3893C24.3892 33.1579 24.2976 33.9516 24.2976 34.7484C24.2976 40.4054 28.8999 45.0077 34.5569 45.0077C40.2139 45.0077 44.8162 40.4054 44.8162 34.7484C44.8162 29.0913 40.214 24.4893 34.5569 24.4893Z" fill="#F7B32C"/>
<path d="M28.8571 26.2173C28.3259 26.5728 27.8248 26.9806 27.3682 27.4294L28.6007 28.6838C28.9795 28.3118 29.3949 27.9738 29.8352 27.679L28.8571 26.2173Z" fill="#F7B32C"/>
<path d="M26.1295 28.8962C25.7635 29.4221 25.4458 29.9849 25.1851 30.5687L26.7908 31.2859C27.0069 30.8024 27.2701 30.3363 27.5732 29.9005L26.1295 28.8962Z" fill="#F7B32C"/>
<path d="M38.7944 30.467L37.5173 31.6764L38.7267 32.9534L40.0037 31.7441L38.7944 30.467Z" fill="#F7B32C"/>
<path d="M36.2395 32.8875L32.8149 36.1304L30.3128 33.6284L29.0691 34.8721L32.7814 38.5842L37.4487 34.1647L36.2395 32.8875Z" fill="#F7B32C"/>
<path d="M5.9836 4.81434L4.73999 6.05795L8.55054 9.8685L9.79415 8.62489L5.9836 4.81434Z" fill="#F7B32C"/>
</g>
<defs>
<clipPath id="clip0_487_509">
<rect width="60" height="60" fill="white"/>
</clipPath>
</defs>
</svg>
