<svg width="60" height="60" viewBox="0 0 60 60" fill="none" xmlns="http://www.w3.org/2000/svg">
<g clip-path="url(#clip0_487_433)">
<path d="M59.4518 39.1536C59.3115 39.0591 56.3534 37.0936 53.3517 37.4381C53.9739 35.314 54.3134 33.0706 54.3266 30.7511C55.8234 30.2598 58.2949 29.1466 59.3706 26.9396C60.9248 23.7507 58.8973 19.7115 58.8103 19.5412L58.5094 18.9522L57.86 19.0781C57.7036 19.1084 54.6056 19.7332 52.676 21.7831C52.0396 20.148 51.2243 18.5829 50.2431 17.1139C51.5432 16.124 52.9092 14.6751 53.297 12.7865C54.0106 9.31155 51.0435 5.90234 50.9169 5.7589L50.4791 5.26308L49.8814 5.54621C49.7084 5.62812 45.638 7.59218 44.9244 11.0671C44.9048 11.1628 44.888 11.2594 44.8735 11.3568C43.5098 10.3012 42.0434 9.39803 40.4987 8.6587C40.9877 7.63882 41.3607 6.36077 41.1232 5.05589C40.5875 2.11192 37.2126 0.388324 37.0691 0.316489L36.4781 0.0200049L36.0291 0.505863C35.9204 0.623636 33.369 3.42547 33.9046 6.36968C33.9188 6.44761 33.9354 6.52554 33.9538 6.60335C33.3704 6.50796 32.7819 6.43273 32.1886 6.37988L32.0323 8.13147C43.7406 9.17573 52.5699 18.8399 52.5699 30.611C52.5699 43.0561 42.4451 53.1808 30.0001 53.1808C17.555 53.1808 7.43038 43.0556 7.43038 30.6107C7.43038 18.8396 16.2596 9.1755 27.9679 8.13112L27.8116 6.37952C27.2186 6.43238 26.63 6.50761 26.0464 6.603C26.0648 6.52531 26.0814 6.44726 26.0956 6.36933C26.6313 3.42535 24.08 0.623402 23.9711 0.505512L23.5222 0.0196533L22.9311 0.316137C22.7877 0.387973 19.4128 2.11156 18.877 5.05554C18.6396 6.36042 19.0126 7.63847 19.5015 8.65835C17.9568 9.3978 16.4905 10.3011 15.1268 11.3565C15.1124 11.2591 15.0955 11.1623 15.0758 11.0668C14.3621 7.59171 10.2917 5.62777 10.1188 5.54585L9.521 5.26273L9.08319 5.75855C8.95639 5.90199 5.98944 9.31108 6.70311 12.7862C7.09089 14.6746 8.45694 16.1236 9.75701 17.1135C8.77569 18.5826 7.9603 20.1476 7.32409 21.7827C5.39448 19.733 2.29652 19.1082 2.13996 19.0779L1.49062 18.9521L1.18969 19.5411C1.10273 19.7115 -0.924842 23.7507 0.629296 26.9394C1.70507 29.1467 4.17644 30.2598 5.67327 30.751C5.68651 33.0706 6.026 35.3139 6.64815 37.438C3.64663 37.0937 0.688358 39.059 0.548085 39.1535L0 39.5237L0.203671 40.153C0.2625 40.3351 1.68504 44.6249 5.03894 45.7808C5.65897 45.9944 6.29507 46.0813 6.92003 46.0813C8.29346 46.0813 9.61065 45.6616 10.5793 45.2461C11.6837 46.7079 12.9493 48.041 14.349 49.22C9.98904 49.8388 6.99139 54.5191 6.86225 54.724L6.50952 55.2834L6.94932 55.7774C7.10823 55.956 10.742 59.9804 15.0716 59.9802C15.2585 59.9802 15.447 59.9727 15.6362 59.9571C19.2768 59.6563 22.0614 56.4171 23.1254 54.9815C23.3202 54.7799 23.5802 54.4984 23.8696 54.1557C25.8288 54.6662 27.8832 54.9385 30.0001 54.9385C32.1169 54.9385 34.1712 54.6662 36.1305 54.1557C36.4196 54.4981 36.6799 54.7797 36.8747 54.9815C37.9386 56.4171 40.7233 59.6563 44.3638 59.9571C44.5534 59.9727 44.7413 59.9803 44.9284 59.9802C49.2576 59.9798 52.8919 55.9558 53.0508 55.7772L53.4906 55.2833L53.1379 54.7238C53.0087 54.519 50.0111 49.8385 45.6511 49.2199C47.0508 48.0409 48.3163 46.7076 49.4208 45.246C50.3894 45.6615 51.7064 46.0813 53.0801 46.0812C53.7049 46.0812 54.3414 45.9943 54.9612 45.7807C58.315 44.6248 59.7375 40.335 59.7963 40.1529L60 39.5236L59.4518 39.1536ZM57.5208 20.9801C57.9527 22.085 58.6515 24.4007 57.7897 26.1689C57.0922 27.5999 55.4409 28.4563 54.2691 28.9043C54.1476 27.1616 53.8399 25.4499 53.3577 23.7943C54.2773 22.1399 56.4225 21.3093 57.5208 20.9801ZM38.8853 7.95663C37.9437 7.58737 36.9781 7.27624 35.993 7.02675C35.8138 6.70132 35.6931 6.37531 35.6347 6.05421C35.3695 4.59664 36.2982 3.0493 36.8816 2.24938C37.7098 2.7957 39.1294 3.9234 39.3927 5.37031C39.5547 6.25988 39.2614 7.19304 38.8853 7.95663ZM49.2123 15.6856C48.8017 15.1579 48.3693 14.6443 47.913 14.1479C47.4969 13.6954 47.065 13.2613 46.6199 12.8445C46.5483 12.338 46.5566 11.86 46.6469 11.4205C47.0426 9.49319 49.0094 8.08448 50.0249 7.47276C50.7176 8.43569 51.9696 10.5053 51.574 12.4322C51.2883 13.8242 50.1562 14.9567 49.2123 15.6856ZM20.6071 5.37031C20.8723 3.91273 22.2867 2.79172 23.1147 2.24867C23.6973 3.05164 24.6285 4.60718 24.3652 6.05421C24.3069 6.37531 24.186 6.70132 24.0069 7.02675C23.0218 7.27624 22.0562 7.58726 21.1146 7.95663C20.7385 7.19304 20.4453 6.25988 20.6071 5.37031ZM8.42588 12.4322C8.03014 10.505 9.28264 8.43522 9.97486 7.47276C10.991 8.08495 12.9574 9.49366 13.3529 11.4205C13.4431 11.8599 13.4515 12.338 13.3799 12.8445C12.9348 13.2615 12.5028 13.6954 12.0868 14.1479C11.6304 14.6442 11.1981 15.1578 10.7874 15.6856C9.84373 14.9567 8.71159 13.8242 8.42588 12.4322ZM5.73081 28.9042C4.55894 28.4562 2.90765 27.6 2.21015 26.1689C1.34672 24.3974 2.04961 22.0769 2.48109 20.9748C3.73581 21.3498 5.7744 22.242 6.64194 23.7947C6.15983 25.4503 5.85222 27.1617 5.73081 28.9042ZM5.61198 44.1182C3.75187 43.477 2.60859 41.3449 2.13304 40.2591C3.17718 39.6963 5.39097 38.7216 7.25096 39.3628C7.26971 39.3693 7.29022 39.3779 7.30944 39.3851C7.9085 40.9288 8.66002 42.3969 9.54666 43.7702C8.42998 44.2062 6.92401 44.5704 5.61198 44.1182ZM21.8228 53.7987L21.7804 53.8422L21.7443 53.8912C21.0474 54.8394 18.5369 57.9528 15.4912 58.2044C12.6044 58.4433 9.83564 56.1354 8.74721 55.0976C9.64815 53.8943 11.9931 51.1672 14.8898 50.9278C15.553 50.873 16.2584 50.9511 16.9874 51.1575C18.5529 52.1523 20.2392 52.9728 22.0188 53.5925C21.9472 53.6696 21.8811 53.7389 21.8228 53.7987ZM51.2523 55.0998C50.1661 56.1389 47.4057 58.4447 44.5084 58.2047C41.463 57.9531 38.9523 54.8396 38.2554 53.8913L38.2193 53.8424L38.1769 53.7988C38.1187 53.739 38.0525 53.6696 37.9806 53.5928C39.7604 52.9729 41.4467 52.1525 43.0121 51.1577C43.741 50.9515 44.4467 50.8733 45.1097 50.928C47.9965 51.1665 50.3492 53.8973 51.2523 55.0998ZM54.3879 44.1182C53.0758 44.5705 51.5699 44.2063 50.4531 43.7702C51.3399 42.3969 52.0914 40.9288 52.6903 39.3851C52.7095 39.3781 52.7299 39.3694 52.7488 39.3628C54.6089 38.7216 56.8231 39.6966 57.8667 40.2591C57.3909 41.3455 56.2477 43.4771 54.3879 44.1182Z" fill="#F7B32C"/>
<path d="M43.7762 15.1926H16.2235V21.6411H16.2237H20.2461L17.4473 35.2989L30 50.6412L42.5527 35.299L39.7539 21.6412H43.7762V15.1926ZM27.9483 31.4312C27.9483 30.2998 28.8688 29.3793 30.0002 29.3793C31.1315 29.3793 32.052 30.2998 32.052 31.4312C32.052 32.5625 31.1315 33.483 30.0002 33.483C28.8688 33.483 27.9483 32.5626 27.9483 31.4312ZM40.662 34.8325L30.8793 46.789V35.138C32.5577 34.7398 33.8104 33.2295 33.8104 31.431C33.8104 29.33 32.101 27.6206 29.9999 27.6206C27.8989 27.6206 26.1895 29.33 26.1895 31.431C26.1895 33.2295 27.4422 34.7398 29.1206 35.138V46.789L19.338 34.8325L22.041 21.6411H37.9586L40.662 34.8325ZM42.0178 19.8825H17.9824V16.9514H42.0177V19.8825H42.0178Z" fill="#F7B32C"/>
<path d="M34.3963 10.9719H32.6377V12.7305H34.3963V10.9719Z" fill="#F7B32C"/>
<path d="M27.3615 10.9719H25.6029V12.7305H27.3615V10.9719Z" fill="#F7B32C"/>
<path d="M30.8791 10.9719H29.1205V12.7305H30.8791V10.9719Z" fill="#F7B32C"/>
<path d="M16.982 53.8304C16.3088 54.3581 15.6933 54.6585 15.2022 54.6992C15.1597 54.7027 15.1161 54.7044 15.0725 54.7044C14.5459 54.7044 13.8608 54.467 13.0915 54.0178L12.2047 55.5367C13.2576 56.1515 14.2227 56.4632 15.0726 56.4632C15.1637 56.4632 15.2557 56.4594 15.3464 56.452C16.1936 56.382 17.1088 55.9657 18.0669 55.2148L16.982 53.8304Z" fill="#F7B32C"/>
<path d="M46.9124 54.0203C46.1532 54.4678 45.4668 54.7043 44.9273 54.7043C44.8825 54.7044 44.8402 54.7028 44.7982 54.6993C44.3067 54.6587 43.691 54.3583 43.0177 53.8304L41.9327 55.2148C42.8909 55.9657 43.8062 56.382 44.6532 56.4519C44.7437 56.4594 44.8335 56.4631 44.9272 56.4631C45.7928 56.4631 46.7612 56.151 47.8053 55.5353L46.9124 54.0203Z" fill="#F7B32C"/>
<path d="M36.5232 23.3998H33.5172V25.1584H35.0885L35.7523 28.3966L37.4751 28.0434L36.5232 23.3998Z" fill="#F7B32C"/>
<path d="M37.8265 29.7672L36.1038 30.1203L36.4569 31.8431L38.1797 31.49L37.8265 29.7672Z" fill="#F7B32C"/>
<path d="M29.2962 23.4H27.5375V25.1587H29.2962V23.4Z" fill="#F7B32C"/>
<path d="M25.7788 23.4H24.0201V25.1587H25.7788V23.4Z" fill="#F7B32C"/>
<path d="M33.5658 37.9563L32.452 39.3173L33.813 40.431L34.9267 39.07L33.5658 37.9563Z" fill="#F7B32C"/>
<path d="M36.1223 34.829L34.6788 36.593L36.0398 37.7067L37.4833 35.9428L36.1223 34.829Z" fill="#F7B32C"/>
<path d="M23.1195 33.9001L23.7815 30.6697L22.0587 30.3167L21.2288 34.3662L23.8875 37.6158L25.2485 36.5022L23.1195 33.9001Z" fill="#F7B32C"/>
<path d="M6.55087 40.635H4.79224V42.3937H6.55087V40.635Z" fill="#F7B32C"/>
<path d="M5.0267 23.7516H3.26807V25.5103H5.0267V23.7516Z" fill="#F7B32C"/>
<path d="M11.592 10.5029H9.83337V12.2616H11.592V10.5029Z" fill="#F7B32C"/>
<path d="M55.2075 40.635H53.4489V42.3937H55.2075V40.635Z" fill="#F7B32C"/>
<path d="M56.7317 23.7516H54.973V25.5103H56.7317V23.7516Z" fill="#F7B32C"/>
<path d="M50.166 10.5029H48.4073V12.2616H50.166V10.5029Z" fill="#F7B32C"/>
</g>
<defs>
<clipPath id="clip0_487_433">
<rect width="60" height="60" fill="white"/>
</clipPath>
</defs>
</svg>
