<svg width="161" height="20" viewBox="0 0 161 20" fill="none" xmlns="http://www.w3.org/2000/svg">
<path d="M41.0228 5.41943L43.0836 7.96782L45.1444 5.41943H48.944L45.1444 9.87105L49.2982 14.7743H45.4342L43.0836 12.0323L40.7652 14.7743H36.9978L41.1194 10.0001L37.2554 5.41943H41.0228Z" fill="#22AED1"/>
<path d="M56.8008 11.8065H51.52C51.7132 12.5485 52.3572 12.9678 53.3232 12.9678C54.0316 12.9678 54.5146 12.7743 54.9976 12.3227L56.3178 13.7098C55.6416 14.4839 54.6112 14.871 53.2266 14.871C50.6506 14.871 48.944 13.2904 48.944 11.1291C48.944 8.96782 50.6506 7.41943 52.9368 7.41943C55.0942 7.41943 56.833 8.77427 56.833 11.1614C56.833 11.3227 56.833 11.5807 56.8008 11.8065ZM51.52 10.4517H54.4824C54.3536 9.6775 53.8062 9.19363 53.0012 9.19363C52.1962 9.19363 51.6488 9.6775 51.52 10.4517Z" fill="#22AED1"/>
<path d="M65.5592 7.51624V14.742H63.0154V9.51624H61.18L61.1156 10.613C61.019 13.2259 60.536 14.9033 58.6684 14.9033C58.3142 14.9033 57.8956 14.8388 57.4448 14.7098L57.5414 12.6453C57.6702 12.6775 57.7668 12.6775 57.8634 12.6775C58.765 12.6775 58.8294 11.742 58.8938 10.5162L58.9904 7.51624H65.5592Z" fill="#22AED1"/>
<path d="M74.7683 7.51624V14.742H72.2246V9.51624H69.8096V14.742H67.2657V7.51624H74.7683Z" fill="#22AED1"/>
<path d="M81.4981 5.1936H85.2977L80.9829 9.67747L85.6197 14.5807H81.7557L77.4409 9.80651L81.4981 5.1936Z" fill="#222222"/>
<path d="M84.9757 10.9355C84.9757 8.77422 86.7145 7.22583 89.0651 7.22583C91.4801 7.22583 93.1545 8.77422 93.1545 10.9355C93.1545 13.1291 91.4479 14.6774 89.0651 14.6774C86.6823 14.6774 84.9757 13.1291 84.9757 10.9355ZM90.5785 10.9355C90.5785 9.83873 89.9023 9.22583 89.0329 9.22583C88.1635 9.22583 87.4873 9.83873 87.4873 10.9355C87.4873 12.0323 88.1635 12.6774 89.0329 12.6774C89.9023 12.6774 90.5785 12.0323 90.5785 10.9355Z" fill="#222222"/>
<path d="M93.9917 7.35489H96.5355V10.0001H99.1437V7.32263H101.688V14.5484H99.1437V12.0001H96.5355V14.5484H93.9917V7.35489Z" fill="#222222"/>
<path d="M102.493 10.9355C102.493 8.77422 104.231 7.22583 106.646 7.22583C108.289 7.22583 109.544 7.96777 110.06 9.22583L108.095 10.2258C107.741 9.54841 107.226 9.25809 106.646 9.25809C105.745 9.25809 105.069 9.87099 105.069 10.9678C105.069 12.0968 105.745 12.7097 106.646 12.7097C107.226 12.7097 107.741 12.4194 108.095 11.742L110.06 12.742C109.577 14 108.289 14.742 106.646 14.742C104.231 14.6774 102.493 13.1291 102.493 10.9355Z" fill="#222222"/>
<path d="M117.82 10.5484V14.5807H115.437V13.6452C115.083 14.3226 114.374 14.6775 113.28 14.6775C111.541 14.6775 110.575 13.7097 110.575 12.4517C110.575 11.1291 111.541 10.2904 113.795 10.2904H115.244C115.179 9.54844 114.696 9.12909 113.698 9.12909C113.022 9.12909 112.217 9.35489 111.734 9.77425L110.865 8.03231C111.67 7.48393 112.925 7.1936 114.052 7.1936C116.467 7.22586 117.82 8.25812 117.82 10.5484ZM115.244 12.2259V11.5807H114.149C113.344 11.5807 113.054 11.871 113.054 12.3226C113.054 12.742 113.408 13.0646 113.988 13.0646C114.568 13.0646 115.051 12.8065 115.244 12.2259Z" fill="#222222"/>
<path d="M126.739 7.35486V14.5807H124.195V9.35486H122.36L122.296 10.4516C122.199 13.0645 121.716 14.742 119.848 14.742C119.494 14.742 119.076 14.6774 118.625 14.5484L118.721 12.4839C118.85 12.5161 118.947 12.5161 119.043 12.5161C119.945 12.5161 120.009 11.5807 120.074 10.3549L120.17 7.35486H126.739Z" fill="#222222"/>
<path d="M134.918 9.35486H132.599V14.5807H130.056V9.35486H127.705V7.35486H134.918V9.35486Z" fill="#222222"/>
<path d="M135.916 7.35486H138.46V11.1613L141.487 7.35486H143.837V14.5807H141.293V10.7742L138.267 14.5484H135.916V7.35486Z" fill="#222222"/>
<path d="M145.512 7.35489H148.056V10.0001H150.664V7.32263H153.208V14.5484H150.664V12.0001H148.056V14.5484H145.512V7.35489Z" fill="#222222"/>
<path d="M161 9.35486H157.458V14.5807H154.914V7.35486H161V9.35486Z" fill="#222222"/>
<path d="M19.6744 16.1291C20.1574 16.613 20.1574 17.3872 19.6744 17.8388L17.8712 19.6452C17.3882 20.1291 16.6154 20.1291 16.1646 19.6452L10.0466 13.5485L3.92857 19.6452C3.44557 20.1291 2.67277 20.1291 2.22197 19.6452L0.418769 17.8388C-0.0642314 17.3549 -0.0642314 16.5807 0.418769 16.1291L6.53677 10.0323L0.418769 3.93555C-0.0642314 3.45168 -0.0642314 2.67749 0.418769 2.22587L2.22197 0.419422C2.70497 -0.0644492 3.47777 -0.0644492 3.92857 0.419422L10.0466 6.5162L16.1646 0.419422C16.6476 -0.0644492 17.4204 -0.0644492 17.8712 0.419422L19.6744 2.22587C20.1574 2.70974 20.1574 3.48394 19.6744 3.93555L13.5564 10.0001L19.6744 16.1291Z" fill="#22AED1"/>
<path d="M19.1589 10.2581L28.3037 0.354847C28.7867 -0.129024 29.5595 -0.129024 30.0103 0.354847L31.8135 2.1613C32.2965 2.64517 32.2965 3.41936 31.8135 3.87098L25.6955 10L31.8135 16.0968C32.2965 16.5807 32.2965 17.3548 31.8135 17.8065L30.0103 19.6129C29.5273 20.0968 28.7545 20.0968 28.3037 19.6129L19.1589 10.2581Z" fill="#222222"/>
</svg>
