<svg width="33" height="20" viewBox="0 0 33 20" fill="none" xmlns="http://www.w3.org/2000/svg">
<path d="M19.6744 16.1291C20.1574 16.613 20.1574 17.3872 19.6744 17.8388L17.8712 19.6452C17.3882 20.1291 16.6154 20.1291 16.1646 19.6452L10.0466 13.5485L3.92857 19.6452C3.44557 20.1291 2.67277 20.1291 2.22197 19.6452L0.418769 17.8388C-0.0642314 17.3549 -0.0642314 16.5807 0.418769 16.1291L6.53677 10.0323L0.418769 3.93555C-0.0642314 3.45168 -0.0642314 2.67749 0.418769 2.22587L2.22197 0.419422C2.70497 -0.0644492 3.47777 -0.0644492 3.92857 0.419422L10.0466 6.5162L16.1646 0.419422C16.6476 -0.0644492 17.4204 -0.0644492 17.8712 0.419422L19.6744 2.22587C20.1574 2.70974 20.1574 3.48394 19.6744 3.93555L13.5564 10.0001L19.6744 16.1291Z" fill="#22AED1"/>
<path d="M19.1589 10.2581L28.3037 0.354847C28.7867 -0.129024 29.5595 -0.129024 30.0103 0.354847L31.8135 2.1613C32.2965 2.64517 32.2965 3.41936 31.8135 3.87098L25.6955 10L31.8135 16.0968C32.2965 16.5807 32.2965 17.3548 31.8135 17.8065L30.0103 19.6129C29.5273 20.0968 28.7545 20.0968 28.3037 19.6129L19.1589 10.2581Z" fill="#222222"/>
</svg>
