<svg width="20" height="20" viewBox="0 0 20 20" fill="none" xmlns="http://www.w3.org/2000/svg">
<g clip-path="url(#clip0_452_66)">
<path d="M16.875 0H13.9062C12.1831 0 10.7812 1.40188 10.7812 3.125V6.09375C10.7812 7.81687 12.1831 9.21875 13.9062 9.21875H16.875C18.5981 9.21875 20 7.81687 20 6.09375V3.125C20 1.40188 18.5981 0 16.875 0ZM18.4375 6.09375C18.4375 6.95531 17.7366 7.65625 16.875 7.65625H13.9062C13.0447 7.65625 12.3438 6.95531 12.3438 6.09375V3.125C12.3438 2.26344 13.0447 1.5625 13.9062 1.5625H16.875C17.7366 1.5625 18.4375 2.26344 18.4375 3.125V6.09375Z" fill="#F7B32C"/>
<path d="M6.09375 0H3.125C1.40188 0 0 1.40188 0 3.125V6.09375C0 7.81687 1.40188 9.21875 3.125 9.21875H6.09375C7.81687 9.21875 9.21875 7.81687 9.21875 6.09375V3.125C9.21875 1.40188 7.81687 0 6.09375 0ZM7.65625 6.09375C7.65625 6.95531 6.95531 7.65625 6.09375 7.65625H3.125C2.26344 7.65625 1.5625 6.95531 1.5625 6.09375V3.125C1.5625 2.26344 2.26344 1.5625 3.125 1.5625H6.09375C6.95531 1.5625 7.65625 2.26344 7.65625 3.125V6.09375Z" fill="#F7B32C"/>
<path d="M6.09375 10.7812H3.125C1.40188 10.7812 0 12.1831 0 13.9062V16.875C0 18.5981 1.40188 20 3.125 20H6.09375C7.81687 20 9.21875 18.5981 9.21875 16.875V13.9062C9.21875 12.1831 7.81687 10.7812 6.09375 10.7812ZM7.65625 16.875C7.65625 17.7366 6.95531 18.4375 6.09375 18.4375H3.125C2.26344 18.4375 1.5625 17.7366 1.5625 16.875V13.9062C1.5625 13.0447 2.26344 12.3438 3.125 12.3438H6.09375C6.95531 12.3438 7.65625 13.0447 7.65625 13.9062V16.875Z" fill="#F7B32C"/>
<path d="M19.2188 16.0938C18.7873 16.0938 18.4375 16.4435 18.4375 16.875C18.4375 17.7366 17.7366 18.4375 16.875 18.4375H13.9062C13.0447 18.4375 12.3438 17.7366 12.3438 16.875V13.9062C12.3438 13.0447 13.0447 12.3438 13.9062 12.3438H16.875C17.4963 12.3438 18.0586 12.7117 18.3076 13.2811C18.4805 13.6764 18.9411 13.8567 19.3364 13.6839C19.7318 13.511 19.9121 13.0504 19.7393 12.6551C19.2415 11.5168 18.1172 10.7812 16.875 10.7812H13.9062C12.1831 10.7812 10.7812 12.1831 10.7812 13.9062V16.875C10.7812 18.5981 12.1831 20 13.9062 20H16.875C18.5981 20 20 18.5981 20 16.875C20 16.4435 19.6502 16.0938 19.2188 16.0938Z" fill="#F7B32C"/>
</g>
<defs>
<clipPath id="clip0_452_66">
<rect width="20" height="20" fill="white"/>
</clipPath>
</defs>
</svg>
