<svg width="20" height="20" viewBox="0 0 20 20" fill="none" xmlns="http://www.w3.org/2000/svg">
<path d="M19.998 16.1154C19.9701 15.3418 19.6479 14.6198 19.0907 14.0825C17.9996 13.0305 17.0855 12.4231 16.2138 12.1712C15.0128 11.8241 13.9003 12.1398 12.9075 13.1094C12.906 13.1108 12.9046 13.1123 12.9031 13.1138L11.8468 14.1621C11.1867 13.79 9.90312 12.973 8.51632 11.5862L8.41351 11.4835C7.02648 10.0965 6.20948 8.81264 5.83773 8.15327L6.88616 7.09698C6.88765 7.09549 6.88913 7.09401 6.89062 7.09248C7.86019 6.09975 8.17581 4.98733 7.82874 3.7862C7.57683 2.91459 6.96952 2.00045 5.91741 0.909399C5.38015 0.352251 4.65823 0.0299852 3.8846 0.00209458C3.1105 -0.0258351 2.36769 0.243618 1.79159 0.760727L1.76917 0.780884C1.75878 0.79022 1.74862 0.799868 1.7387 0.809751C0.591867 1.95659 -0.00930517 3.56209 0.00010889 5.45276C0.0161636 8.66456 1.78136 12.3375 4.72194 15.2781C5.27644 15.8326 5.90663 16.3813 6.59499 16.9091C6.93737 17.1716 7.42776 17.1069 7.6903 16.7645C7.95288 16.4221 7.88812 15.9317 7.54569 15.6692C6.91151 15.1829 6.33319 14.6796 5.82679 14.1733C3.17069 11.5172 1.57659 8.25432 1.56257 5.44498C1.55534 3.98889 1.99335 2.77354 2.82941 1.92877L2.83538 1.92338C3.40323 1.41366 4.26296 1.44467 4.79273 1.99401C6.81534 4.09159 6.6689 5.08186 5.77515 5.99834L4.32694 7.45741C4.09984 7.68624 4.03659 8.03108 4.16773 8.32561C4.20448 8.40819 5.0939 10.3735 7.30894 12.5886L7.41179 12.6913C9.62655 14.9061 11.5919 15.7955 11.6745 15.8322C11.969 15.9634 12.3139 15.9001 12.5427 15.673L14.0018 14.2248C14.9184 13.331 15.9087 13.1846 18.0061 15.2073C18.5555 15.7369 18.5865 16.5967 18.0769 17.1645L18.0713 17.1706C17.2335 17.9999 16.031 18.4375 14.5908 18.4375C14.5789 18.4375 14.5671 18.4375 14.5551 18.4374C13.4039 18.4317 12.0709 18.1161 10.7001 17.5249C10.304 17.3539 9.84421 17.5366 9.67335 17.9328C9.50245 18.329 9.68507 18.7887 10.0813 18.9596C11.6657 19.643 13.1683 19.993 14.5474 19.9999C14.562 20 14.5766 20 14.5912 20C16.4628 20 18.0524 19.3993 19.1904 18.2614C19.2003 18.2514 19.2099 18.2413 19.2192 18.2309L19.2395 18.2083C19.7566 17.6323 20.026 16.889 19.998 16.1154Z" fill="#F7B32C"/>
</svg>
