<svg width="20" height="20" viewBox="0 0 20 20" fill="none" xmlns="http://www.w3.org/2000/svg">
<path d="M11.7969 0C7.27368 0 3.59375 3.67992 3.59375 8.20312C3.59375 10.1931 4.30602 12.0199 5.48903 13.4419L0.230708 18.6645C-0.0754251 18.9685 -0.0771048 19.4632 0.226919 19.7693C0.379653 19.923 0.580434 20 0.781255 20C0.980278 20 1.17938 19.9244 1.33176 19.773L6.59727 14.5434C8.0136 15.707 9.82512 16.4062 11.7969 16.4062C13.2041 16.4062 14.5928 16.0436 15.8127 15.3576C16.1888 15.1461 16.3222 14.6698 16.1106 14.2937C15.8991 13.9176 15.4228 13.7841 15.0467 13.9957C14.0602 14.5505 12.9365 14.8438 11.7969 14.8438C8.13524 14.8438 5.15625 11.8648 5.15625 8.20312C5.15625 4.54148 8.13524 1.5625 11.7969 1.5625C15.4585 1.5625 18.4375 4.54148 18.4375 8.20312C18.4375 9.35668 18.1374 10.4925 17.5697 11.4879C17.3559 11.8627 17.4864 12.3398 17.8612 12.5536C18.236 12.7674 18.7131 12.6369 18.9269 12.2621C19.6289 11.0312 20 9.6277 20 8.20312C20 3.67992 16.3201 0 11.7969 0Z" fill="#F7B32C"/>
</svg>
